<?xml version="1.0" standalone="no"?>
<!DOCTYPE svg PUBLIC "-//W3C//DTD SVG 20010904//EN"
 "http://www.w3.org/TR/2001/REC-SVG-20010904/DTD/svg10.dtd">
<svg version="1.0" xmlns="http://www.w3.org/2000/svg"
 width="500.000000" height="300.000000">

<g transform="translate(0.000000,400.000000) scale(0.100000,-0.100000)"
fill="#FFF" stroke="none">
<path d="M2987 3369 c-149 -26 -266 -67 -443 -154 -83 -41 -162 -75 -175 -75
-54 0 -147 -32 -202 -70 -51 -35 -61 -38 -77 -27 -15 11 -16 16 -6 35 7 13 24
31 39 41 l27 18 -24 12 c-13 7 -30 24 -37 37 -15 29 -26 30 -34 5 -3 -11 -20
-29 -38 -40 -18 -11 -26 -21 -19 -21 16 0 62 -45 62 -60 0 -17 -33 -11 -82 15
-98 52 -237 68 -356 40 -159 -38 -276 -140 -328 -289 -15 -42 -21 -177 -9
-209 6 -13 2 -17 -16 -17 -120 0 -215 -107 -213 -240 1 -61 17 -101 68 -175
20 -27 47 -67 61 -88 13 -20 42 -49 64 -65 35 -24 39 -32 45 -82 12 -115 48
-182 134 -247 198 -151 645 -84 1028 154 69 42 91 51 141 55 33 2 77 13 100
25 l40 21 26 -28 c15 -16 43 -31 64 -35 20 -4 48 -18 60 -32 32 -33 71 -28 98
14 20 31 54 45 105 43 29 -1 305 -1 335 0 11 0 37 -2 58 -6 51 -9 93 11 128
59 31 43 38 94 14 103 -25 10 -17 32 35 97 27 33 69 100 94 148 71 139 72 229
3 260 -21 10 -23 16 -21 108 2 77 6 107 23 139 30 58 28 122 -4 160 -17 21
-25 42 -25 68 0 55 -49 152 -100 198 -54 48 -147 92 -236 111 -95 20 -275 18
-407 -6z m176 -144 c125 -26 224 -89 267 -170 14 -26 13 -29 -4 -39 -41 -24
-98 -81 -117 -119 l-20 -39 -78 7 c-62 5 -87 3 -133 -12 -52 -18 -59 -18 -85
-4 -43 23 -139 20 -193 -6 -25 -12 -58 -23 -75 -25 l-30 -3 -1 60 c-1 37 -9
79 -21 105 -22 50 -90 116 -134 132 -16 5 -29 13 -29 17 0 11 184 70 285 91
110 23 274 25 368 5z m-1118 -239 c40 -17 55 -42 55 -94 0 -58 -36 -107 -81
-108 -18 -1 -39 -2 -45 -3 -28 -3 -87 -200 -77 -255 7 -37 35 -50 78 -36 30
10 37 19 70 107 56 144 115 195 131 113 4 -17 10 -33 14 -35 4 -3 25 9 45 25
56 44 107 57 149 38 49 -24 62 -63 42 -131 -22 -75 -21 -114 3 -127 36 -19 68
7 106 87 19 40 54 92 77 116 67 66 161 86 213 45 l27 -21 44 24 c35 18 48 21
62 13 28 -18 26 -41 -18 -140 -27 -62 -40 -105 -38 -127 7 -75 80 -27 133 89
54 117 132 177 231 178 90 1 138 -43 138 -126 0 -35 -7 -55 -28 -82 -45 -60
-104 -80 -188 -63 -43 9 -48 -1 -17 -29 30 -27 130 -25 185 4 64 33 87 69 138
218 79 227 124 299 182 292 46 -5 43 -46 -10 -158 -50 -108 -84 -206 -93 -266
-5 -36 -2 -44 16 -54 27 -14 58 -5 93 27 29 27 58 25 58 -3 0 -27 -68 -145
-108 -187 -47 -49 -82 -67 -129 -67 -57 1 -93 38 -93 95 l0 27 -37 -37 c-58
-58 -132 -88 -202 -83 -70 5 -111 31 -138 89 l-19 40 -31 -50 c-35 -55 -81
-85 -124 -79 -26 4 -30 0 -50 -50 -62 -152 -140 -219 -245 -210 -57 5 -93 24
-127 69 -37 51 -17 182 32 209 16 8 21 5 29 -20 12 -33 57 -60 103 -60 70 0
153 77 166 154 7 46 -7 46 -32 -1 -26 -48 -78 -83 -124 -83 -45 0 -76 21 -99
66 l-18 35 -31 -39 c-57 -70 -149 -94 -190 -49 -33 36 -35 78 -9 177 21 81 22
93 9 106 -16 15 -46 11 -72 -10 -24 -19 -51 -89 -51 -136 -1 -114 -25 -160
-85 -160 -42 0 -75 29 -75 67 l0 27 -37 -36 c-47 -45 -73 -58 -113 -58 -70 0
-100 47 -100 159 l0 69 -56 7 c-31 4 -57 5 -58 3 -2 -2 -19 -30 -39 -64 -84
-140 -179 -214 -276 -214 -129 0 -212 96 -181 210 14 52 65 108 105 116 27 5
32 2 45 -27 31 -70 134 -73 208 -5 l36 33 -30 16 c-71 37 -134 137 -134 212 0
57 31 118 72 143 81 50 203 11 196 -62 -3 -27 -7 -31 -36 -34 -46 -5 -66 -38
-60 -101 3 -29 14 -60 26 -76 l22 -27 17 32 c147 264 321 399 448 346z m913
-788 c17 -17 15 -54 -4 -72 -18 -18 -36 -13 -28 8 3 8 1 17 -5 21 -23 14 -22
-28 1 -80 l25 -54 16 53 17 53 48 1 c58 0 72 -10 73 -57 0 -32 2 -34 12 -17
42 66 56 75 113 74 54 -2 56 -2 49 -27 -11 -45 -10 -64 2 -68 6 -2 14 10 18
26 12 58 84 91 119 55 19 -18 19 -20 6 -45 -13 -23 -55 -27 -46 -4 3 9 0 15
-8 15 -21 0 -27 -28 -10 -45 30 -29 51 -17 112 64 37 49 102 39 102 -16 0 -26
-42 -58 -65 -49 -9 3 -13 2 -10 -4 10 -16 37 -12 73 10 27 17 32 18 32 4 0
-29 -65 -84 -98 -84 -30 0 -62 22 -62 42 0 5 -14 -2 -31 -16 -35 -30 -74 -33
-101 -9 -17 15 -19 15 -36 0 -25 -23 -53 -21 -59 2 -5 19 -5 19 -24 0 -25 -25
-59 -25 -66 1 -3 11 -12 20 -20 20 -8 0 -26 -9 -40 -20 -29 -23 -54 -25 -71
-8 -9 9 -13 7 -18 -8 -20 -61 -28 -75 -43 -72 -17 4 -21 46 -7 83 6 16 6 17
-3 4 -19 -30 -67 -43 -101 -29 -36 15 -50 37 -50 79 0 33 30 71 55 71 11 0 13
-7 9 -29 -6 -31 12 -46 37 -31 12 8 12 14 0 42 -22 55 -25 93 -6 111 19 20 76
22 93 5z m-1127 -104 c77 -84 248 -85 328 -2 l24 25 48 -33 c26 -17 69 -38 96
-45 35 -9 59 -24 87 -56 l38 -43 -48 -21 c-190 -81 -348 -115 -504 -107 -127
7 -198 34 -267 103 -49 48 -67 85 -42 85 21 0 118 51 160 85 24 19 47 35 50
35 3 0 16 -12 30 -26z"/>
<path d="M1782 2746 c-33 -38 -117 -174 -111 -180 2 -2 22 -7 45 -10 l40 -7
37 98 c20 54 38 104 39 112 6 27 -20 21 -50 -13z"/>
<path d="M3192 2618 c-36 -36 5 -88 52 -67 29 13 39 34 31 60 -7 22 -63 27
-83 7z"/>
<path d="M2685 2575 c-30 -29 -35 -99 -9 -109 51 -20 104 20 104 78 0 57 -52
75 -95 31z"/>
<path d="M3500 2075 c0 -9 5 -15 11 -13 6 2 11 8 11 13 0 5 -5 11 -11 13 -6 2
-11 -4 -11 -13z"/>
<path d="M3021 2071 c-8 -6 -11 -16 -7 -27 6 -16 8 -16 23 -1 20 19 6 41 -16
28z"/>
<path d="M3169 2064 c-17 -21 7 -37 34 -23 14 8 16 13 6 25 -15 18 -23 18 -40
-2z"/>
<path d="M3850 2654 c0 -7 -12 -25 -28 -40 l-28 -29 31 -30 30 -30 32 33 c30
30 30 33 12 42 -10 6 -25 23 -33 38 -9 15 -15 22 -16 16z"/>
<path d="M1114 1981 l-29 -26 27 -27 28 -27 27 27 28 27 -26 26 -26 25 -29
-25z"/>
</g>
</svg>
